<?xml version="1.0" encoding="utf-8"?>
<!-- Generator: Adobe Illustrator 21.0.0, SVG Export Plug-In . SVG Version: 6.00 Build 0)  -->
<svg version="1.1" id="_图层_1" xmlns="http://www.w3.org/2000/svg" xmlns:xlink="http://www.w3.org/1999/xlink" x="0px" y="0px"
	 viewBox="0 0 4450 734" style="enable-background:new 0 0 4450 734;" xml:space="preserve">
<style type="text/css">
	.st0{fill:#231815;}
	.st1{font-family:'TimesNewRomanPSMT';}
	.st2{font-size:48px;}
	.st3{fill:none;stroke:#036EB8;stroke-width:3;stroke-miterlimit:10;}
	.st4{fill:#036EB8;}
	.st5{fill:none;stroke:#E60012;stroke-width:3;stroke-miterlimit:10;}
	.st6{fill:#E60012;}
	.st7{clip-path:url(#SVGID_2_);}
	.st8{fill:#FFFFFF;}
	.st9{fill:none;stroke:#262626;stroke-width:0.83;stroke-linejoin:round;}
	.st10{fill:#3B89CA;}
	.st11{fill:none;stroke:#040000;stroke-width:0.83;stroke-miterlimit:10;}
	.st12{fill:#EF7D1B;}
	.st13{fill:#040000;}
	.st14{font-size:36px;}
	.st15{fill:none;stroke:#262626;stroke-width:0.83;stroke-linecap:square;stroke-linejoin:round;}
	.st16{fill:#262626;}
	.st17{display:none;}
	.st18{display:inline;fill:#262626;}
	.st19{fill:none;stroke:#262626;stroke-width:0.83;stroke-miterlimit:10;}
	.st20{clip-path:url(#SVGID_4_);}
	.st21{clip-path:url(#SVGID_6_);}
</style>
<image style="overflow:visible;enable-background:new    ;" width="1088" height="544" xlink:href="2F3ADAFB.png"  transform="matrix(0.7786 0 0 0.7786 118.35 131.7208)">
</image>
<image style="overflow:visible;enable-background:new    ;" width="1084" height="543" xlink:href="2F3ADAF9.png"  transform="matrix(0.7812 0 0 0.7812 1561.4362 139.5326)">
</image>
<text transform="matrix(1 0 0 1 54.9799 103.7651)" class="st0 st1 st2">(a)</text>
<text transform="matrix(1 0 0 1 1519.7246 113.2399)" class="st0 st1 st2">(b)</text>
<g>
	<line class="st3" x1="55" y1="613.3" x2="55" y2="554.6"/>
	<polygon class="st4" points="66.1,563.1 55,558.3 43.9,563.1 55,536.7 	"/>
</g>
<g>
	<line class="st5" x1="55" y1="611.8" x2="113.6" y2="611.8"/>
	<polygon class="st6" points="105.2,623 109.9,611.8 105.2,600.8 131.5,611.8 	"/>
</g>
<text transform="matrix(1 0 0 1 46.48 522.39)" class="st0 st1 st2">y</text>
<g>
	<g>
		<g>
			<defs>
				<rect id="SVGID_1_" x="2441.3" y="70.3" width="500" height="625"/>
			</defs>
			<clipPath id="SVGID_2_">
				<use xlink:href="#SVGID_1_"  style="overflow:visible;"/>
			</clipPath>
			<g class="st7">
				<rect x="2441.3" y="70.3" class="st8" width="500" height="625"/>
			</g>
		</g>
	</g>
	<g>
		<rect x="2441.3" y="70.3" class="st8" width="500" height="625"/>
		<path class="st8" d="M2506.3,626.3h388v-509h-388V626.3z"/>
	</g>
	<line class="st9" x1="2506.3" y1="626.3" x2="2894.3" y2="626.3"/>
	<path class="st10" d="M2603.3,626.3V179.5h-55.4v446.8H2603.3z M2797.3,626.3V172.7h-55.4v453.6H2797.3z"/>
	<g>
		<path class="st11" d="M2547.8,626.3V179.5h55.4v446.8H2547.8z"/>
		<path class="st11" d="M2741.8,626.3V172.7h55.4v453.6H2741.8z"/>
	</g>
	<path class="st12" d="M2658.7,626.3V194.8h-55.4v431.5H2658.7z M2852.7,626.3V171.6h-55.4v454.7L2852.7,626.3L2852.7,626.3z"/>
	<g>
		<path class="st11" d="M2603.3,626.3V194.8h55.4v431.5H2603.3z"/>
		<path class="st11" d="M2797.3,626.3V171.6h55.4v454.7L2797.3,626.3L2797.3,626.3z"/>
	</g>
	<text transform="matrix(1 0 0 1 2538.2798 172.725)" class="st13 st1 st14">7.90</text>
	<text transform="matrix(1 0 0 1 2730.3298 166.725)" class="st13 st1 st14">8.02</text>
	<text transform="matrix(1 0 0 1 2605.4998 188.785)" class="st13 st1 st14">7.63</text>
	<text transform="matrix(1 0 0 1 2798.5898 167.1951)" class="st13 st1 st14">8.04</text>
	<g>
		<line class="st15" x1="2506.3" y1="626.3" x2="2894.3" y2="626.3"/>
		<line class="st15" x1="2506.3" y1="626.3" x2="2506.3" y2="621.2"/>
		<line class="st15" x1="2603.3" y1="626.3" x2="2603.3" y2="621.2"/>
		<line class="st15" x1="2700.3" y1="626.3" x2="2700.3" y2="621.2"/>
		<line class="st15" x1="2797.3" y1="626.3" x2="2797.3" y2="621.2"/>
		<line class="st15" x1="2894.3" y1="626.3" x2="2894.3" y2="621.2"/>
	</g>
	<text transform="matrix(1 0 0 1 2537.3896 657.905)" class="st16 st1 st14">In x-axis</text>
	<text transform="matrix(1 0 0 1 2735.2998 658.375)" class="st16 st1 st14">In y-axis</text>
	<g>
		<line class="st15" x1="2506.3" y1="626.3" x2="2506.3" y2="117.3"/>
		<line class="st15" x1="2506.3" y1="626.3" x2="2511.4" y2="626.3"/>
		<line class="st15" x1="2506.3" y1="569.7" x2="2511.4" y2="569.7"/>
		<line class="st15" x1="2506.3" y1="513.2" x2="2511.4" y2="513.2"/>
		<line class="st15" x1="2506.3" y1="456.6" x2="2511.4" y2="456.6"/>
		<line class="st15" x1="2506.3" y1="400.1" x2="2511.4" y2="400.1"/>
		<line class="st15" x1="2506.3" y1="343.5" x2="2511.4" y2="343.5"/>
		<line class="st15" x1="2506.3" y1="287" x2="2511.4" y2="287"/>
		<line class="st15" x1="2506.3" y1="230.4" x2="2511.4" y2="230.4"/>
		<line class="st15" x1="2506.3" y1="173.9" x2="2511.4" y2="173.9"/>
		<line class="st15" x1="2506.3" y1="117.3" x2="2511.4" y2="117.3"/>
	</g>
	<text transform="matrix(1 0 0 1 2483.6099 635.8051)" class="st16 st1 st14">0</text>
	<g class="st17">
		<text transform="matrix(1 0 0 1 2483.6099 579.245)" class="st18 st1 st14">1</text>
	</g>
	<g class="st17">
		<text transform="matrix(1 0 0 1 2483.6099 522.6949)" class="st18 st1 st14">2</text>
	</g>
	<text transform="matrix(1 0 0 1 2483.6099 466.135)" class="st16 st1 st14">3</text>
	<g class="st17">
		<text transform="matrix(1 0 0 1 2483.6099 409.5851)" class="st18 st1 st14">4</text>
	</g>
	<g class="st17">
		<text transform="matrix(1 0 0 1 2483.6099 353.025)" class="st18 st1 st14">5</text>
	</g>
	<text transform="matrix(1 0 0 1 2483.6099 296.475)" class="st16 st1 st14">6</text>
	<g class="st17">
		<text transform="matrix(1 0 0 1 2483.6099 239.915)" class="st18 st1 st14">7</text>
	</g>
	<g class="st17">
		<text transform="matrix(1 0 0 1 2483.6099 183.365)" class="st18 st1 st14">8</text>
	</g>
	<text transform="matrix(1 0 0 1 2483.6099 126.8051)" class="st16 st1 st14">9</text>
	<text transform="matrix(6.123234e-17 -1 1 6.123234e-17 2472.2798 497.7451)" class="st16 st1 st14">Heat conductivity</text>
	<path class="st8" d="M2913.3,135.3v-36h-394v36H2913.3z"/>
	<text transform="matrix(1 0 0 1 2765.9998 86.925)" class="st13 st1 st14">Theory</text>
	<text transform="matrix(1 0 0 1 2765.9998 123.775)" class="st13 st1 st14">Experiment</text>
	<path class="st12" d="M2759.4,123.1V99.9h-50.1v23.3L2759.4,123.1L2759.4,123.1z"/>
	<g>
		<path class="st11" d="M2709.3,123.1V99.9h50.1v23.3L2709.3,123.1L2709.3,123.1z"/>
		<path class="st19" d="M2698,132.8V56.2h243.8v76.5H2698V132.8z"/>
	</g>
	<path class="st10" d="M2759.4,86.3V63h-50.1v23.3H2759.4z"/>
	<path class="st11" d="M2709.3,86.3V63h50.1v23.3H2709.3z"/>
</g>
<g>
	<g>
		<g>
			<defs>
				<rect id="SVGID_3_" x="1005.8" y="62.8" width="500" height="625"/>
			</defs>
			<clipPath id="SVGID_4_">
				<use xlink:href="#SVGID_3_"  style="overflow:visible;"/>
			</clipPath>
			<g class="st20">
				<rect x="1005.8" y="62.8" class="st8" width="500" height="625"/>
			</g>
		</g>
	</g>
	<g>
		<rect x="1005.8" y="62.8" class="st8" width="500" height="625"/>
		<path class="st8" d="M1070.8,618.8h388v-509h-388V618.8z"/>
	</g>
	<line class="st9" x1="1070.8" y1="618.8" x2="1458.8" y2="618.8"/>
	<path class="st10" d="M1167.8,618.8v-444h-55.4v444H1167.8z M1361.8,618.8V167.5h-55.4v451.3H1361.8L1361.8,618.8z"/>
	<g>
		<path class="st11" d="M1112.4,618.8v-444h55.4v444H1112.4z"/>
		<path class="st11" d="M1306.4,618.8V167.5h55.4v451.3H1306.4L1306.4,618.8z"/>
	</g>
	<path class="st12" d="M1223.3,618.8V517h-55.4v101.8H1223.3z M1417.3,618.8V166.4h-55.4v452.4H1417.3L1417.3,618.8z"/>
	<g>
		<path class="st11" d="M1167.8,618.8V517h55.4v101.8H1167.8z"/>
		<path class="st11" d="M1361.8,618.8V166.4h55.4v452.4H1361.8L1361.8,618.8z"/>
	</g>
	<text transform="matrix(1 0 0 1 1108.54 168.86)" class="st13 st1 st14">7.85</text>
	<text transform="matrix(1 0 0 1 1295.62 161.5)" class="st13 st1 st14">7.98</text>
	<text transform="matrix(1 0 0 1 1167.85 511.02)" class="st13 st1 st14">1.80</text>
	<text transform="matrix(1 0 0 1 1368.7 160.37)" class="st13 st1 st14">8.00</text>
	<g>
		<line class="st15" x1="1070.8" y1="618.8" x2="1458.8" y2="618.8"/>
		<line class="st15" x1="1070.8" y1="618.8" x2="1070.8" y2="613.7"/>
		<line class="st15" x1="1167.8" y1="618.8" x2="1167.8" y2="613.7"/>
		<line class="st15" x1="1264.8" y1="618.8" x2="1264.8" y2="613.7"/>
		<line class="st15" x1="1361.8" y1="618.8" x2="1361.8" y2="613.7"/>
		<line class="st15" x1="1458.8" y1="618.8" x2="1458.8" y2="613.7"/>
	</g>
	<text transform="matrix(1 0 0 1 1101.95 652.48)" class="st16 st1 st14">In x-axis</text>
	<text transform="matrix(1 0 0 1 1299.88 652.48)" class="st16 st1 st14">In y-axis</text>
	<g>
		<line class="st15" x1="1070.8" y1="618.8" x2="1070.8" y2="109.8"/>
		<line class="st15" x1="1070.8" y1="618.8" x2="1075.9" y2="618.8"/>
		<line class="st15" x1="1070.8" y1="562.3" x2="1075.9" y2="562.3"/>
		<line class="st15" x1="1070.8" y1="505.7" x2="1075.9" y2="505.7"/>
		<line class="st15" x1="1070.8" y1="449.1" x2="1075.9" y2="449.1"/>
		<line class="st15" x1="1070.8" y1="392.6" x2="1075.9" y2="392.6"/>
		<line class="st15" x1="1070.8" y1="336" x2="1075.9" y2="336"/>
		<line class="st15" x1="1070.8" y1="279.5" x2="1075.9" y2="279.5"/>
		<line class="st15" x1="1070.8" y1="222.9" x2="1075.9" y2="222.9"/>
		<line class="st15" x1="1070.8" y1="166.4" x2="1075.9" y2="166.4"/>
		<line class="st15" x1="1070.8" y1="109.8" x2="1075.9" y2="109.8"/>
	</g>
	<text transform="matrix(1 0 0 1 1048.1799 628.32)" class="st16 st1 st14">0</text>
	<g class="st17">
		<text transform="matrix(1 0 0 1 1048.1799 571.76)" class="st18 st1 st14">1</text>
	</g>
	<g class="st17">
		<text transform="matrix(1 0 0 1 1048.1799 515.21)" class="st18 st1 st14">2</text>
	</g>
	<text transform="matrix(1 0 0 1 1048.1799 458.65)" class="st16 st1 st14">3</text>
	<g class="st17">
		<text transform="matrix(1 0 0 1 1048.1799 402.1)" class="st18 st1 st14">4</text>
	</g>
	<g class="st17">
		<text transform="matrix(1 0 0 1 1048.1799 345.54)" class="st18 st1 st14">5</text>
	</g>
	<text transform="matrix(1 0 0 1 1048.1799 288.98)" class="st16 st1 st14">6</text>
	<g class="st17">
		<text transform="matrix(1 0 0 1 1048.1799 232.4299)" class="st18 st1 st14">7</text>
	</g>
	<g class="st17">
		<text transform="matrix(1 0 0 1 1048.1799 175.87)" class="st18 st1 st14">8</text>
	</g>
	<text transform="matrix(1 0 0 1 1048.1799 119.3201)" class="st16 st1 st14">9</text>
	<text transform="matrix(6.123234e-17 -1 1 6.123234e-17 1036.85 490.8701)" class="st16 st1 st14">Heat conductivity</text>
	<path class="st8" d="M1477.8,125.3v-36h-394v36H1477.8z"/>
	<text transform="matrix(1 0 0 1 1330.5699 77.04)" class="st13 st1 st14">Theory</text>
	<path class="st10" d="M1323.9,76.4V53.1h-50.1v23.3H1323.9z"/>
	<path class="st11" d="M1273.9,76.4V53.1h50.1v23.3H1273.9z"/>
	<text transform="matrix(1 0 0 1 1330.5699 113.89)" class="st13 st1 st14">Experiment</text>
	<path class="st12" d="M1323.9,113.2V90h-50.1v23.3h50.1V113.2z"/>
	<g>
		<path class="st11" d="M1273.9,113.2V90h50.1v23.3h-50.1V113.2z"/>
		<path class="st19" d="M1262.5,122.9V46.3h243.8v76.5L1262.5,122.9L1262.5,122.9z"/>
	</g>
</g>
<g>
	<path class="st13" d="M847.3,588h8.4v59.1h-8.4v-1.5h5.1v-56h-5.1V588L847.3,588L847.3,588z M667.3,588h8.4v1.5h-5.1v56h5.1v1.5
		h-8.4V588L667.3,588L667.3,588z"/>
	<path class="st13" d="M686.4,596.7c-0.9,0-1.6,0.1-2.2,0.4s-1.1,0.6-1.4,1.1s-0.6,1-0.8,1.6s-0.2,1.3-0.2,2c0,0.8,0.1,1.5,0.3,2.1
		s0.5,1.2,0.8,1.7s0.9,0.9,1.5,1.1s1.3,0.4,2.2,0.4c1,0,1.8-0.2,2.5-0.6s1.2-1,1.6-1.8s0.5-1.7,0.5-2.7c0-1.1-0.2-2.1-0.6-2.9
		s-0.9-1.4-1.6-1.9S687.4,596.7,686.4,596.7L686.4,596.7L686.4,596.7z M686.5,585.6c-1.5,0-2.6,0.4-3.4,1.2s-1.2,1.9-1.2,3.4
		c0,0.7,0.1,1.3,0.3,2s0.4,1.1,0.8,1.6s0.8,0.8,1.4,1.1s1.3,0.4,2.1,0.4c1,0,1.8-0.2,2.5-0.6s1.2-0.9,1.5-1.7s0.5-1.6,0.5-2.5
		c0-1-0.2-2-0.6-2.7s-0.9-1.3-1.6-1.6S687.4,585.6,686.5,585.6L686.5,585.6L686.5,585.6z M686.6,584.1c1.7,0,3.1,0.2,4.3,0.7
		s2,1.2,2.6,2.1s0.9,2,0.9,3.2s-0.3,2.4-1,3.3s-1.6,1.7-2.9,2.3v0.2c1.3,0.5,2.3,1.3,3,2.3s1,2.2,1,3.6s-0.3,2.6-1,3.6
		s-1.6,1.8-2.9,2.4s-2.7,0.8-4.4,0.8c-1.6,0-2.9-0.3-4.1-0.8s-2.1-1.3-2.7-2.3s-1-2.2-1-3.5c0-1,0.2-1.9,0.5-2.7s0.8-1.4,1.4-1.8
		s1.3-0.9,2.2-1.3V596c-2.5-1.1-3.8-3-3.8-5.6c0-1.2,0.3-2.3,1-3.2s1.6-1.7,2.8-2.2S685.1,584.2,686.6,584.1L686.6,584.1
		L686.6,584.1z"/>
	<polygon class="st13" points="698.3,604.3 701.9,604.3 701.9,608.4 698.3,608.4 	"/>
	<path class="st13" d="M713.7,585.6c-0.9,0-1.6,0.2-2.2,0.5s-1.1,0.7-1.5,1.3s-0.7,1.2-0.8,1.9s-0.3,1.5-0.3,2.3
		c0,1.8,0.4,3.1,1.1,4.1s1.7,1.4,3,1.4c0.5,0,0.9,0,1.3-0.1s0.8-0.2,1.2-0.3s0.8-0.3,1.1-0.6s0.7-0.5,1-0.7c0.1-0.1,0.2-0.2,0.3-0.4
		s0.2-0.3,0.2-0.6s0.1-0.6,0.1-1.2c0-1.6-0.2-3-0.5-4.1s-0.8-2-1.5-2.6S714.7,585.6,713.7,585.6L713.7,585.6L713.7,585.6z
		 M726.6,584.4h15.1v0.8l-10.2,23.3H729v-0.9l9.5-20.1v-0.3h-7.7c-0.5,0-0.9,0-1.2,0.1s-0.5,0.2-0.7,0.4s-0.3,0.4-0.5,0.7
		s-0.3,0.8-0.5,1.6h-1.5L726.6,584.4L726.6,584.4L726.6,584.4z M713.9,584.1c2.5,0,4.3,0.8,5.6,2.5s1.9,4.1,1.9,7.3
		c0,2.9-0.5,5.5-1.4,7.6s-2.3,3.8-4,5s-3.7,1.9-6,2.1l-0.7-1v-0.9c1.6,0,3.1-0.4,4.3-1.1s2.2-1.8,2.9-3.2s1.2-3.3,1.5-5.6l-0.2-0.1
		c-1,0.7-2,1.2-2.9,1.5s-2,0.5-3.1,0.5c-1.3,0-2.5-0.3-3.4-0.9s-1.6-1.4-2.1-2.4s-0.7-2.3-0.7-3.7c0-1,0.2-2,0.5-3s0.9-1.8,1.6-2.5
		s1.6-1.3,2.6-1.7S712.5,584.1,713.9,584.1L713.9,584.1L713.9,584.1z"/>
	<path class="st13" d="M812.9,585.6c-0.8,0-1.5,0.2-2,0.7s-1,1.2-1.3,2.1s-0.6,2-0.7,3.3s-0.2,2.8-0.2,4.4c0,3.8,0.3,6.6,1.1,8.4
		s1.8,2.7,3.3,2.7s2.5-0.8,3.2-2.5s1-4.3,1-7.8c0-2.7-0.2-4.9-0.5-6.5s-0.8-2.9-1.5-3.6S813.8,585.6,812.9,585.6L812.9,585.6
		L812.9,585.6z M813,584.1c2.6,0,4.5,1,5.7,3s1.9,5,1.9,9s-0.7,7.3-2,9.4s-3.3,3.2-5.9,3.2s-4.4-1-5.7-3s-1.8-5-1.8-9.1
		c0-2.2,0.2-4,0.6-5.6s0.9-2.9,1.6-3.9s1.5-1.8,2.5-2.3S811.9,584.1,813,584.1L813,584.1L813,584.1z"/>
	<path class="st13" d="M710,627.9c-0.8,0-1.5,0.2-2,0.7s-1,1.2-1.3,2.1s-0.6,2-0.7,3.3s-0.2,2.8-0.2,4.4c0,3.8,0.3,6.6,1.1,8.4
		s1.8,2.7,3.3,2.7s2.5-0.8,3.2-2.5s1-4.3,1-7.8c0-2.7-0.2-4.9-0.5-6.5s-0.8-2.9-1.5-3.6S710.8,627.9,710,627.9L710,627.9L710,627.9z
		 M710,626.4c2.6,0,4.5,1,5.7,3s1.9,5,1.9,9s-0.7,7.3-2,9.4s-3.3,3.2-5.9,3.2s-4.4-1-5.7-3s-1.8-5-1.8-9.1c0-2.2,0.2-4,0.6-5.6
		s0.9-2.9,1.6-3.9s1.5-1.8,2.5-2.3S708.9,626.4,710,626.4L710,626.4L710,626.4z"/>
	<path class="st13" d="M789.4,638.9c-0.9,0-1.6,0.1-2.2,0.4s-1.1,0.6-1.4,1.1s-0.6,1-0.8,1.6s-0.2,1.3-0.2,2c0,0.8,0.1,1.5,0.3,2.1
		s0.5,1.2,0.8,1.7s0.9,0.9,1.5,1.1s1.3,0.4,2.2,0.4c1,0,1.8-0.2,2.5-0.6s1.2-1,1.6-1.8s0.5-1.7,0.5-2.7c0-1.1-0.2-2.1-0.6-2.9
		s-0.9-1.4-1.6-1.9S790.3,638.9,789.4,638.9L789.4,638.9L789.4,638.9z M789.5,627.9c-1.5,0-2.6,0.4-3.4,1.2s-1.2,1.9-1.2,3.4
		c0,0.7,0.1,1.3,0.3,2s0.4,1.1,0.8,1.6s0.8,0.8,1.4,1.1s1.3,0.4,2.1,0.4c1,0,1.8-0.2,2.5-0.6s1.2-0.9,1.5-1.7s0.5-1.6,0.5-2.5
		c0-1-0.2-2-0.6-2.7s-0.9-1.3-1.6-1.6S790.4,627.9,789.5,627.9L789.5,627.9L789.5,627.9z M789.5,626.4c1.7,0,3.1,0.2,4.3,0.7
		s2,1.2,2.6,2.1s0.9,2,0.9,3.2s-0.3,2.4-1,3.3s-1.6,1.7-2.9,2.3v0.2c1.3,0.5,2.3,1.3,3,2.3s1,2.2,1,3.6s-0.3,2.6-1,3.6
		s-1.6,1.8-2.9,2.4s-2.7,0.8-4.4,0.8c-1.6,0-2.9-0.3-4.1-0.8s-2.1-1.3-2.7-2.3s-1-2.2-1-3.5c0-1,0.2-1.9,0.5-2.7s0.8-1.4,1.4-1.8
		c0.6-0.5,1.3-0.9,2.2-1.3v-0.2c-2.5-1.1-3.8-3-3.8-5.6c0-1.2,0.3-2.3,1-3.2s1.6-1.7,2.8-2.2S788,626.4,789.5,626.4L789.5,626.4
		L789.5,626.4z"/>
	<polygon class="st13" points="801.3,646.6 804.8,646.6 804.8,650.6 801.3,650.6 	"/>
	<path class="st13" d="M816.7,627.9c-0.9,0-1.6,0.2-2.2,0.5s-1.1,0.7-1.5,1.3s-0.7,1.2-0.8,1.9s-0.3,1.5-0.3,2.3
		c0,1.8,0.4,3.1,1.1,4.1s1.7,1.4,3,1.4c0.5,0,0.9,0,1.3-0.1s0.8-0.2,1.2-0.3s0.8-0.3,1.1-0.6s0.7-0.5,1-0.7c0.1-0.1,0.2-0.2,0.3-0.4
		s0.2-0.3,0.2-0.6s0.1-0.6,0.1-1.2c0-1.6-0.2-3-0.5-4.1s-0.8-2-1.5-2.6S817.6,627.9,816.7,627.9L816.7,627.9L816.7,627.9z
		 M829.7,626.7h15.1v0.8l-10.2,23.3H832v-0.9l9.5-20.1v-0.3h-7.7c-0.5,0-0.9,0-1.2,0.1s-0.5,0.2-0.7,0.4s-0.3,0.4-0.5,0.7
		s-0.3,0.8-0.5,1.6h-1.5L829.7,626.7L829.7,626.7L829.7,626.7z M816.9,626.4c2.5,0,4.3,0.8,5.6,2.5s1.9,4.1,1.9,7.3
		c0,2.9-0.5,5.5-1.4,7.6s-2.3,3.8-4,5s-3.7,1.9-6,2.1l-0.7-1V649c1.6,0,3.1-0.4,4.3-1.1s2.2-1.8,2.9-3.2s1.2-3.3,1.5-5.6l-0.2-0.1
		c-1,0.7-2,1.2-2.9,1.5s-2,0.5-3.1,0.5c-1.3,0-2.5-0.3-3.4-0.9s-1.6-1.4-2.1-2.4s-0.7-2.3-0.7-3.7c0-1,0.2-2,0.5-3s0.9-1.8,1.6-2.5
		s1.6-1.3,2.6-1.7S815.5,626.4,816.9,626.4L816.9,626.4L816.9,626.4z"/>
</g>
<g>
	<path class="st13" d="M422.1,588h8.4v59.1h-8.4v-1.5h5.1v-56h-5.1V588L422.1,588L422.1,588z M242.1,588h8.4v1.5h-5.1v56h5.1v1.5
		h-8.4V588L242.1,588L242.1,588z"/>
	<path class="st13" d="M262.1,595.8c-0.6,0-1.1,0.1-1.7,0.2c-0.6,0.1-1,0.3-1.5,0.6s-0.9,0.6-1.4,0.9c-0.1,0.1-0.3,0.3-0.3,0.4
		c-0.1,0.2-0.2,0.5-0.2,0.8s-0.1,0.9-0.1,1.7c0,2.2,0.4,3.9,1.1,5.1s1.9,1.8,3.4,1.8c0.9,0,1.6-0.2,2.2-0.5s1.1-0.7,1.4-1.3
		s0.6-1.2,0.8-1.9c0.2-0.7,0.2-1.5,0.2-2.3c0-1.7-0.4-3.1-1.1-4S263.4,595.7,262.1,595.8L262.1,595.8L262.1,595.8z M266.6,584.1
		l0.7,1v0.9c-1.8,0-3.4,0.4-4.8,1.2s-2.6,1.9-3.5,3.4s-1.6,3.3-1.9,5.3l0.2,0.1c1-0.7,1.9-1.2,2.9-1.5s2-0.5,3.1-0.5
		c1.3,0,2.4,0.3,3.4,0.9s1.6,1.4,2.1,2.4s0.7,2.3,0.7,3.7c0,1.5-0.3,2.9-0.9,4s-1.5,2.1-2.7,2.8c-1.2,0.7-2.7,1-4.5,1
		c-2.6,0-4.5-0.8-5.8-2.4c-1.3-1.6-2-3.9-2-7c0-2.1,0.3-4,1-5.8s1.6-3.4,2.8-4.8c1.2-1.4,2.6-2.4,4.2-3.2S264.8,584.2,266.6,584.1
		L266.6,584.1L266.6,584.1z"/>
	<polygon class="st13" points="273.1,604.3 276.7,604.3 276.7,608.4 273.1,608.4 	"/>
	<path class="st13" d="M308.4,596.7c-0.9,0-1.6,0.1-2.2,0.4s-1.1,0.6-1.4,1.1s-0.6,1-0.8,1.6s-0.2,1.3-0.2,2c0,0.8,0.1,1.5,0.3,2.1
		s0.5,1.2,0.8,1.7s0.9,0.9,1.5,1.1s1.3,0.4,2.2,0.4c1,0,1.8-0.2,2.5-0.6s1.2-1,1.6-1.8s0.5-1.7,0.5-2.7c0-1.1-0.2-2.1-0.6-2.9
		s-0.9-1.4-1.6-1.9S309.3,596.7,308.4,596.7L308.4,596.7L308.4,596.7z M308.5,585.6c-1.5,0-2.6,0.4-3.4,1.2s-1.2,1.9-1.2,3.4
		c0,0.7,0.1,1.3,0.3,2c0.2,0.6,0.4,1.1,0.8,1.6s0.8,0.8,1.4,1.1s1.3,0.4,2.1,0.4c1,0,1.8-0.2,2.5-0.6s1.1-0.9,1.5-1.7
		s0.5-1.6,0.5-2.5c0-1-0.2-2-0.6-2.7s-0.9-1.3-1.6-1.6S309.4,585.6,308.5,585.6L308.5,585.6L308.5,585.6z M288.5,585.6
		c-0.9,0-1.6,0.2-2.2,0.5c-0.6,0.3-1.1,0.7-1.5,1.3c-0.4,0.6-0.7,1.2-0.8,1.9s-0.3,1.5-0.3,2.3c0,1.8,0.4,3.1,1.1,4.1s1.7,1.4,3,1.4
		c0.4,0,0.9,0,1.3-0.1s0.8-0.2,1.2-0.3c0.4-0.1,0.8-0.3,1.1-0.6c0.3-0.3,0.7-0.5,1-0.7c0.1-0.1,0.2-0.2,0.3-0.4s0.1-0.3,0.2-0.6
		c0.1-0.3,0.1-0.6,0.1-1.2c0-1.6-0.2-3-0.5-4.1c-0.3-1.1-0.8-2-1.5-2.6C290.3,585.9,289.5,585.6,288.5,585.6L288.5,585.6
		L288.5,585.6z M308.5,584.1c1.7,0,3.1,0.2,4.3,0.7s2,1.2,2.6,2.1s0.9,2,0.9,3.2s-0.3,2.4-1,3.3s-1.6,1.7-2.9,2.3v0.2
		c1.3,0.5,2.3,1.3,3,2.3s1,2.2,1,3.6s-0.3,2.6-1,3.6s-1.6,1.8-2.9,2.4s-2.7,0.8-4.4,0.8c-1.6,0-2.9-0.3-4.1-0.8s-2.1-1.3-2.7-2.3
		s-1-2.2-1-3.5c0-1,0.2-1.9,0.5-2.7s0.8-1.4,1.4-1.8c0.6-0.5,1.3-0.9,2.1-1.3V596c-2.5-1.1-3.8-3-3.8-5.6c0-1.2,0.3-2.3,1-3.2
		s1.6-1.7,2.8-2.2S307,584.2,308.5,584.1L308.5,584.1L308.5,584.1z M288.7,584.1c2.5,0,4.3,0.8,5.6,2.5c1.3,1.7,1.9,4.1,1.9,7.3
		c0,2.9-0.5,5.5-1.4,7.6c-0.9,2.1-2.3,3.8-4,5c-1.7,1.2-3.7,1.9-6,2.1l-0.7-1v-0.9c1.6,0,3.1-0.4,4.3-1.1c1.2-0.7,2.2-1.8,2.9-3.2
		c0.7-1.4,1.2-3.3,1.5-5.6l-0.2-0.1c-1,0.7-1.9,1.2-2.9,1.5s-2,0.5-3.1,0.5c-1.3,0-2.4-0.3-3.4-0.9s-1.6-1.4-2.1-2.4
		s-0.7-2.3-0.7-3.7c0-1,0.2-2,0.5-3c0.3-1,0.9-1.8,1.6-2.5s1.6-1.3,2.6-1.7S287.3,584.1,288.7,584.1L288.7,584.1L288.7,584.1z"/>
	<path class="st13" d="M387.7,585.6c-0.8,0-1.5,0.2-2,0.7s-1,1.2-1.3,2.1s-0.6,2-0.7,3.3s-0.2,2.8-0.2,4.4c0,3.8,0.4,6.6,1.1,8.4
		s1.8,2.7,3.3,2.7s2.5-0.8,3.2-2.5s1-4.3,1-7.8c0-2.7-0.2-4.9-0.5-6.5s-0.8-2.9-1.5-3.6S388.6,585.6,387.7,585.6L387.7,585.6
		L387.7,585.6z M387.8,584.1c2.6,0,4.5,1,5.7,3s1.9,5,1.9,9s-0.7,7.3-2,9.4s-3.3,3.2-5.9,3.2s-4.4-1-5.6-3s-1.9-5-1.9-9.1
		c0-2.2,0.2-4,0.6-5.6s0.9-2.9,1.6-3.9s1.5-1.8,2.5-2.3S386.7,584.1,387.8,584.1L387.8,584.1L387.8,584.1z"/>
	<path class="st13" d="M284.8,627.9c-0.8,0-1.5,0.2-2,0.7s-1,1.2-1.3,2.1s-0.6,2-0.7,3.3c-0.1,1.3-0.2,2.8-0.2,4.4
		c0,3.8,0.4,6.6,1.1,8.4s1.8,2.7,3.3,2.7s2.5-0.8,3.2-2.5s1-4.3,1-7.8c0-2.7-0.2-4.9-0.5-6.5s-0.8-2.9-1.5-3.6
		S285.7,627.9,284.8,627.9L284.8,627.9L284.8,627.9z M284.9,626.4c2.6,0,4.5,1,5.7,3c1.2,2,1.9,5,1.9,9s-0.7,7.3-2,9.4
		c-1.3,2.1-3.3,3.2-5.9,3.2c-2.6,0-4.4-1-5.6-3s-1.9-5-1.9-9.1c0-2.2,0.2-4,0.6-5.6c0.4-1.6,0.9-2.9,1.6-3.9s1.5-1.8,2.5-2.3
		S283.7,626.4,284.9,626.4L284.9,626.4L284.9,626.4z"/>
	<path class="st13" d="M365,638c-0.6,0-1.1,0.1-1.7,0.2s-1,0.3-1.5,0.6s-0.9,0.6-1.4,0.9c-0.1,0.1-0.3,0.3-0.3,0.4
		c-0.1,0.2-0.2,0.5-0.2,0.8s0,0.9,0,1.7c0,2.2,0.4,3.9,1.1,5.1s1.9,1.8,3.4,1.8c0.9,0,1.6-0.2,2.2-0.5s1.1-0.7,1.5-1.3
		s0.6-1.2,0.8-1.9s0.2-1.5,0.2-2.3c0-1.7-0.4-3.1-1.1-4S366.3,638,365,638L365,638L365,638z M369.5,626.4l0.7,1v0.9
		c-1.8,0-3.4,0.4-4.8,1.2s-2.5,1.9-3.5,3.4s-1.6,3.3-1.9,5.3l0.2,0.1c1-0.7,2-1.2,2.9-1.5s2-0.5,3.1-0.5c1.3,0,2.5,0.3,3.4,0.9
		s1.6,1.4,2.1,2.4s0.7,2.3,0.7,3.7c0,1.5-0.3,2.9-0.9,4s-1.5,2.1-2.7,2.8s-2.7,1-4.5,1c-2.6,0-4.5-0.8-5.8-2.4s-2-3.9-2-7
		c0-2.1,0.3-4,1-5.8s1.6-3.4,2.8-4.8s2.6-2.4,4.2-3.2S367.8,626.5,369.5,626.4L369.5,626.4L369.5,626.4z"/>
	<polygon class="st13" points="376.1,646.6 379.6,646.6 379.6,650.6 376.1,650.6 	"/>
	<path class="st13" d="M411.5,638.9c-0.9,0-1.6,0.1-2.2,0.4s-1.1,0.6-1.4,1.1s-0.6,1-0.8,1.6s-0.2,1.3-0.2,2c0,0.8,0.1,1.5,0.3,2.1
		s0.5,1.2,0.8,1.7s0.9,0.9,1.5,1.1s1.3,0.4,2.2,0.4c1,0,1.8-0.2,2.5-0.6s1.2-1,1.6-1.8s0.5-1.7,0.5-2.7c0-1.1-0.2-2.1-0.6-2.9
		s-0.9-1.4-1.6-1.9S412.4,638.9,411.5,638.9L411.5,638.9L411.5,638.9z M411.6,627.9c-1.5,0-2.6,0.4-3.4,1.2s-1.2,1.9-1.2,3.4
		c0,0.7,0.1,1.3,0.3,2s0.4,1.1,0.8,1.6s0.8,0.8,1.4,1.1s1.3,0.4,2.1,0.4c1,0,1.8-0.2,2.5-0.6s1.1-0.9,1.5-1.7s0.5-1.6,0.5-2.5
		c0-1-0.2-2-0.6-2.7s-0.9-1.3-1.6-1.6S412.5,627.9,411.6,627.9L411.6,627.9L411.6,627.9z M391.5,627.9c-0.9,0-1.6,0.2-2.2,0.5
		s-1.1,0.7-1.5,1.3s-0.7,1.2-0.8,1.9s-0.3,1.5-0.3,2.3c0,1.8,0.4,3.1,1.1,4.1s1.7,1.4,3,1.4c0.5,0,0.9,0,1.3-0.1s0.8-0.2,1.2-0.3
		s0.8-0.3,1.1-0.6s0.7-0.5,1-0.7c0.1-0.1,0.2-0.2,0.3-0.4s0.1-0.3,0.2-0.6s0.1-0.6,0.1-1.2c0-1.6-0.2-3-0.5-4.1s-0.8-2-1.5-2.6
		S392.4,627.9,391.5,627.9L391.5,627.9L391.5,627.9z M411.6,626.4c1.7,0,3.1,0.2,4.3,0.7s2,1.2,2.6,2.1s0.9,2,0.9,3.2
		s-0.3,2.4-1,3.3s-1.6,1.7-2.9,2.3v0.2c1.3,0.5,2.3,1.3,3,2.3s1,2.2,1,3.6s-0.3,2.6-1,3.6s-1.6,1.8-2.9,2.4s-2.7,0.8-4.4,0.8
		c-1.6,0-2.9-0.3-4.1-0.8s-2.1-1.3-2.7-2.3s-1-2.2-1-3.5c0-1,0.2-1.9,0.5-2.7s0.8-1.4,1.4-1.8s1.3-0.9,2.1-1.3v-0.2
		c-2.5-1.1-3.8-3-3.8-5.6c0-1.2,0.3-2.3,1-3.2s1.6-1.7,2.8-2.2S410.1,626.4,411.6,626.4L411.6,626.4L411.6,626.4z M391.7,626.4
		c2.5,0,4.3,0.8,5.6,2.5s1.9,4.1,1.9,7.3c0,2.9-0.5,5.5-1.4,7.6s-2.3,3.8-4,5s-3.7,1.9-6,2.1l-0.7-1V649c1.6,0,3.1-0.4,4.3-1.1
		s2.2-1.8,2.9-3.2s1.2-3.3,1.5-5.6l-0.2-0.1c-1,0.7-2,1.2-2.9,1.5s-2,0.5-3.1,0.5c-1.3,0-2.5-0.3-3.4-0.9s-1.6-1.4-2.1-2.4
		s-0.7-2.3-0.7-3.7c0-1,0.2-2,0.5-3s0.9-1.8,1.6-2.5s1.6-1.3,2.6-1.7S390.3,626.4,391.7,626.4L391.7,626.4L391.7,626.4z"/>
</g>
<g>
	<path class="st13" d="M1857.5,597.9h8.4V657h-8.4v-1.5h5.1v-56h-5.1V597.9L1857.5,597.9z M1677.5,597.9h8.4v1.5h-5.1v56h5.1v1.5
		h-8.4V597.9L1677.5,597.9z"/>
	<path class="st13" d="M1689.7,594.3h15.1v0.8l-10.2,23.3h-2.5v-0.9l9.5-20.1v-0.3h-7.7c-0.5,0-0.9,0-1.2,0.1s-0.5,0.2-0.7,0.4
		s-0.3,0.4-0.5,0.7s-0.3,0.8-0.5,1.6h-1.5L1689.7,594.3L1689.7,594.3L1689.7,594.3z"/>
	<polygon class="st13" points="1708.5,614.2 1712.1,614.2 1712.1,618.3 1708.5,618.3 	"/>
	<path class="st13" d="M1724,595.5c-0.8,0-1.5,0.2-2,0.7s-1,1.2-1.3,2.1s-0.6,2-0.7,3.3s-0.2,2.8-0.2,4.4c0,3.8,0.3,6.6,1.1,8.4
		c0.7,1.8,1.8,2.7,3.3,2.7s2.5-0.8,3.2-2.5s1-4.3,1-7.8c0-2.7-0.2-4.9-0.5-6.6s-0.8-2.9-1.5-3.6S1724.9,595.5,1724,595.5L1724,595.5
		L1724,595.5z M1745.2,594h1c-0.1,1.1-0.1,2.7-0.1,4.7v15c0,0.7,0,1.2,0.1,1.5s0.2,0.6,0.4,0.8c0.2,0.2,0.5,0.4,0.8,0.5
		s0.8,0.2,1.4,0.3c0.5,0.1,1.3,0.1,2.2,0.1v1.3h-13V617c1.3-0.1,2.2-0.1,2.8-0.2s1-0.3,1.3-0.4c0.3-0.2,0.5-0.5,0.6-0.8
		s0.2-1,0.2-1.8v-14.3c0-0.5-0.1-0.8-0.3-1s-0.4-0.3-0.7-0.3c-0.4,0-0.9,0.2-1.6,0.6c-0.7,0.4-1.6,0.9-2.6,1.6l-0.8-1.3L1745.2,594
		L1745.2,594L1745.2,594z M1724.1,594c2.6,0,4.5,1,5.7,3s1.9,5,1.9,9s-0.7,7.3-2,9.4s-3.3,3.2-5.9,3.2s-4.4-1-5.7-3s-1.8-5-1.8-9.1
		c0-2.2,0.2-4,0.6-5.6s0.9-2.9,1.6-3.9s1.5-1.8,2.5-2.3C1721.9,594.2,1723,594,1724.1,594L1724.1,594L1724.1,594z"/>
	<path class="st13" d="M1823.2,595.5c-0.8,0-1.5,0.2-2,0.7s-1,1.2-1.3,2.1s-0.6,2-0.7,3.3s-0.2,2.8-0.2,4.4c0,3.8,0.3,6.6,1.1,8.4
		s1.8,2.7,3.3,2.7s2.5-0.8,3.2-2.5s1-4.3,1-7.8c0-2.7-0.2-4.9-0.5-6.6s-0.8-2.9-1.5-3.6S1824,595.5,1823.2,595.5L1823.2,595.5
		L1823.2,595.5z M1823.2,594c2.6,0,4.5,1,5.7,3s1.9,5,1.9,9s-0.7,7.3-2,9.4c-1.3,2.1-3.3,3.2-5.9,3.2s-4.4-1-5.7-3s-1.8-5-1.8-9.1
		c0-2.2,0.2-4,0.6-5.6s0.9-2.9,1.6-3.9s1.5-1.8,2.5-2.3S1822.1,594,1823.2,594L1823.2,594L1823.2,594z"/>
	<path class="st13" d="M1720.2,637.7c-0.8,0-1.5,0.2-2,0.7s-1,1.2-1.3,2.1c-0.3,0.9-0.6,2-0.7,3.3s-0.2,2.8-0.2,4.4
		c0,3.8,0.3,6.6,1.1,8.4c0.7,1.8,1.8,2.7,3.3,2.7s2.5-0.8,3.2-2.5s1-4.3,1-7.8c0-2.7-0.2-4.9-0.5-6.6s-0.8-2.9-1.5-3.6
		C1721.8,638.1,1721.1,637.8,1720.2,637.7L1720.2,637.7L1720.2,637.7z M1720.3,636.2c2.6,0,4.5,1,5.7,3s1.9,5,1.9,9s-0.7,7.3-2,9.4
		c-1.3,2.1-3.3,3.2-5.9,3.2s-4.4-1-5.6-3s-1.9-5-1.9-9.1c0-2.2,0.2-4,0.6-5.6s0.9-2.9,1.6-3.9s1.5-1.8,2.5-2.3
		C1718.1,636.5,1719.1,636.2,1720.3,636.2L1720.3,636.2L1720.3,636.2z"/>
	<path class="st13" d="M1792.6,636.5h15.1v0.8l-10.2,23.3h-2.5v-0.9l9.5-20.1v-0.3h-7.7c-0.5,0-0.9,0-1.2,0.1s-0.5,0.2-0.7,0.4
		s-0.3,0.4-0.5,0.7s-0.3,0.8-0.5,1.6h-1.5L1792.6,636.5L1792.6,636.5L1792.6,636.5z"/>
	<polygon class="st13" points="1811.5,656.4 1815.1,656.4 1815.1,660.5 1811.5,660.5 	"/>
	<path class="st13" d="M1827,637.7c-0.8,0-1.5,0.2-2,0.7s-1,1.2-1.3,2.1s-0.6,2-0.7,3.3s-0.2,2.8-0.2,4.4c0,3.8,0.3,6.6,1.1,8.4
		s1.8,2.7,3.3,2.7s2.5-0.8,3.2-2.5s1-4.3,1-7.8c0-2.7-0.2-4.9-0.5-6.6c-0.3-1.7-0.8-2.9-1.5-3.6S1827.9,637.8,1827,637.7L1827,637.7
		L1827,637.7z M1848.3,636.2h1c-0.1,1.1-0.1,2.7-0.1,4.7v15c0,0.7,0,1.2,0.1,1.5c0.1,0.4,0.2,0.6,0.4,0.8s0.5,0.4,0.8,0.5
		s0.8,0.2,1.4,0.3s1.3,0.1,2.2,0.1v1.3h-13v-1.3c1.3-0.1,2.2-0.1,2.8-0.2c0.6-0.1,1-0.3,1.3-0.4c0.3-0.2,0.5-0.5,0.6-0.8
		s0.2-1,0.2-1.8v-14.3c0-0.5-0.1-0.8-0.3-1s-0.4-0.3-0.7-0.3c-0.4,0-0.9,0.2-1.6,0.6c-0.7,0.4-1.5,0.9-2.6,1.6l-0.8-1.3
		L1848.3,636.2L1848.3,636.2L1848.3,636.2z M1827.1,636.2c2.6,0,4.5,1,5.7,3s1.9,5,1.9,9s-0.7,7.3-2,9.4s-3.3,3.2-5.9,3.2
		s-4.4-1-5.7-3s-1.8-5-1.8-9.1c0-2.2,0.2-4,0.6-5.6s0.9-2.9,1.6-3.9s1.5-1.8,2.5-2.3S1825.9,636.2,1827.1,636.2L1827.1,636.2
		L1827.1,636.2z"/>
</g>
<g>
	<path class="st13" d="M2282.7,597.9h8.4V657h-8.4v-1.5h5.1v-56h-5.1V597.9L2282.7,597.9z M2102.7,597.9h8.4v1.5h-5.1v56h5.1v1.5
		h-8.4V597.9L2102.7,597.9z"/>
	<path class="st13" d="M2121.8,595.5c-0.9,0-1.6,0.2-2.2,0.5s-1.1,0.7-1.5,1.3s-0.7,1.2-0.8,1.9c-0.2,0.7-0.3,1.5-0.3,2.3
		c0,1.8,0.4,3.1,1.1,4.1s1.7,1.4,3,1.4c0.4,0,0.9,0,1.3-0.1s0.8-0.2,1.2-0.3s0.8-0.3,1.1-0.6c0.4-0.2,0.7-0.5,1-0.7
		c0.1-0.1,0.2-0.2,0.3-0.4s0.1-0.3,0.2-0.6s0.1-0.6,0.1-1.2c0-1.6-0.2-3-0.5-4.1s-0.8-2-1.5-2.6S2122.8,595.5,2121.8,595.5
		L2121.8,595.5L2121.8,595.5z M2122,594c2.5,0,4.3,0.8,5.6,2.6s1.9,4.1,1.9,7.3c0,2.9-0.5,5.4-1.4,7.6c-1,2.1-2.3,3.8-4,5
		s-3.7,1.9-6,2.1l-0.7-1v-0.9c1.6,0,3.1-0.4,4.3-1.1c1.2-0.7,2.2-1.8,2.9-3.2s1.2-3.3,1.5-5.6l-0.2-0.1c-1,0.7-1.9,1.2-2.9,1.6
		s-2,0.5-3.1,0.5c-1.3,0-2.4-0.3-3.4-0.9s-1.6-1.4-2.1-2.4s-0.7-2.3-0.7-3.7c0-1.1,0.2-2.1,0.5-3s0.9-1.8,1.6-2.5
		c0.7-0.7,1.6-1.3,2.6-1.7C2119.4,594.2,2120.6,594,2122,594L2122,594L2122,594z"/>
	<polygon class="st13" points="2133.7,614.2 2137.3,614.2 2137.3,618.3 2133.7,618.3 	"/>
	<path class="st13" d="M2149.2,595.5c-0.8,0-1.5,0.2-2,0.7s-1,1.2-1.3,2.1c-0.3,0.9-0.6,2-0.7,3.3c-0.1,1.3-0.2,2.8-0.2,4.4
		c0,3.8,0.3,6.6,1.1,8.4c0.7,1.8,1.8,2.7,3.3,2.7s2.5-0.8,3.2-2.5s1-4.3,1-7.8c0-2.7-0.2-4.9-0.5-6.6c-0.4-1.7-0.8-2.9-1.5-3.6
		S2150.1,595.5,2149.2,595.5L2149.2,595.5L2149.2,595.5z M2169.1,594c1.3,0,2.5,0.2,3.5,0.6s1.8,1,2.3,1.8s0.8,1.7,0.8,2.8
		c0,1-0.2,1.9-0.6,2.6c-0.4,0.8-1,1.4-1.7,2s-1.7,1.1-2.8,1.7v0.2c0.7,0.1,1.4,0.3,2.1,0.7c0.7,0.3,1.3,0.7,1.8,1.2s0.9,1.1,1.2,1.8
		s0.5,1.5,0.5,2.3c0,1.4-0.3,2.6-0.9,3.6s-1.5,1.9-2.7,2.5s-2.7,0.9-4.4,0.9c-1,0-2.1-0.1-3.3-0.3s-2.2-0.5-3.2-0.9v-3.7h2.1
		c0.4,1.2,0.9,2.1,1.6,2.7c0.7,0.6,1.6,0.8,2.8,0.8c1.5,0,2.7-0.4,3.4-1.3s1.2-2.1,1.2-3.7c0-1.7-0.5-3-1.6-3.9
		c-1-0.9-2.5-1.3-4.5-1.3h-1.6v-1.6c1.6-0.1,2.9-0.4,4-0.9s1.9-1.2,2.4-2s0.8-1.7,0.8-2.7c0-1.3-0.4-2.3-1-3s-1.7-1.1-3-1.1
		c-1.1,0-2,0.3-2.7,0.9c-0.7,0.6-1.2,1.5-1.5,2.7h-2.1v-3.3c1.4-0.6,2.6-1.1,3.8-1.4S2168,594,2169.1,594L2169.1,594L2169.1,594z
		 M2149.3,594c2.6,0,4.5,1,5.7,3s1.9,5,1.9,9s-0.7,7.3-2,9.4c-1.3,2.1-3.3,3.2-5.9,3.2s-4.4-1-5.7-3c-1.2-2-1.8-5-1.8-9.1
		c0-2.2,0.2-4,0.6-5.6c0.4-1.6,0.9-2.9,1.6-3.9c0.7-1,1.5-1.8,2.5-2.3S2148.2,594,2149.3,594L2149.3,594L2149.3,594z"/>
	<path class="st13" d="M2248.3,595.5c-0.8,0-1.5,0.2-2,0.7s-1,1.2-1.3,2.1s-0.6,2-0.7,3.3c-0.1,1.3-0.2,2.8-0.2,4.4
		c0,3.8,0.4,6.6,1.1,8.4s1.8,2.7,3.3,2.7s2.5-0.8,3.2-2.5s1-4.3,1-7.8c0-2.7-0.2-4.9-0.5-6.6s-0.8-2.9-1.5-3.6
		C2250,595.9,2249.2,595.5,2248.3,595.5L2248.3,595.5L2248.3,595.5z M2248.4,594c2.6,0,4.5,1,5.7,3s1.9,5,1.9,9s-0.7,7.3-2,9.4
		s-3.3,3.2-5.9,3.2c-2.6,0-4.4-1-5.6-3s-1.9-5-1.9-9.1c0-2.2,0.2-4,0.6-5.6c0.4-1.6,0.9-2.9,1.6-3.9c0.7-1,1.5-1.8,2.5-2.3
		S2247.3,594,2248.4,594L2248.4,594L2248.4,594z"/>
	<path class="st13" d="M2145.4,637.7c-0.8,0-1.5,0.2-2,0.7s-1,1.2-1.3,2.1s-0.6,2-0.7,3.3c-0.1,1.3-0.2,2.8-0.2,4.4
		c0,3.8,0.4,6.6,1.1,8.4s1.8,2.7,3.3,2.7s2.5-0.8,3.2-2.5s1-4.3,1-7.8c0-2.7-0.2-4.9-0.5-6.6s-0.8-2.9-1.5-3.6
		C2147,638.1,2146.3,637.8,2145.4,637.7L2145.4,637.7L2145.4,637.7z M2145.5,636.2c2.6,0,4.5,1,5.7,3s1.9,5,1.9,9s-0.7,7.3-2,9.4
		s-3.3,3.2-5.9,3.2s-4.4-1-5.6-3s-1.9-5-1.9-9.1c0-2.2,0.2-4,0.6-5.6s0.9-2.9,1.6-3.9c0.7-1,1.5-1.8,2.5-2.3
		S2144.3,636.2,2145.5,636.2L2145.5,636.2L2145.5,636.2z"/>
	<path class="st13" d="M2224.7,637.7c-0.9,0-1.6,0.2-2.2,0.5c-0.6,0.3-1.1,0.7-1.5,1.3c-0.4,0.5-0.7,1.2-0.8,1.9
		c-0.2,0.7-0.3,1.5-0.3,2.3c0,1.8,0.4,3.1,1.1,4.1s1.7,1.4,3,1.4c0.5,0,0.9,0,1.3-0.1c0.4-0.1,0.8-0.2,1.2-0.3s0.8-0.3,1.1-0.6
		s0.7-0.5,1-0.7c0.1-0.1,0.2-0.2,0.3-0.4s0.2-0.3,0.2-0.6s0.1-0.6,0.1-1.2c0-1.6-0.2-3-0.5-4.1s-0.8-2-1.5-2.6
		S2225.7,637.8,2224.7,637.7L2224.7,637.7L2224.7,637.7z M2224.9,636.2c2.5,0,4.3,0.8,5.6,2.6s1.9,4.1,1.9,7.3
		c0,2.9-0.5,5.4-1.4,7.6s-2.3,3.8-4,5s-3.7,1.9-6,2.1l-0.7-1V659c1.6,0,3.1-0.4,4.3-1.1s2.2-1.8,2.9-3.2s1.2-3.3,1.5-5.6l-0.2-0.1
		c-1,0.7-1.9,1.2-2.9,1.6s-2,0.5-3.1,0.5c-1.3,0-2.5-0.3-3.4-0.9s-1.6-1.4-2.1-2.4s-0.7-2.3-0.7-3.7c0-1.1,0.2-2.1,0.5-3
		c0.4-0.9,0.9-1.8,1.6-2.5s1.6-1.3,2.6-1.7S2223.6,636.2,2224.9,636.2L2224.9,636.2L2224.9,636.2z"/>
	<polygon class="st13" points="2236.7,656.4 2240.2,656.4 2240.2,660.5 2236.7,660.5 	"/>
	<path class="st13" d="M2252.2,637.7c-0.8,0-1.5,0.2-2,0.7s-1,1.2-1.3,2.1c-0.3,0.9-0.6,2-0.7,3.3c-0.1,1.3-0.2,2.8-0.2,4.4
		c0,3.8,0.4,6.6,1.1,8.4s1.8,2.7,3.3,2.7s2.5-0.8,3.2-2.5s1-4.3,1-7.8c0-2.7-0.2-4.9-0.5-6.6s-0.8-2.9-1.5-3.6
		S2253.1,637.8,2252.2,637.7L2252.2,637.7L2252.2,637.7z M2272.2,636.2c1.3,0,2.5,0.2,3.5,0.6s1.8,1,2.3,1.8s0.8,1.7,0.8,2.8
		c0,1-0.2,1.9-0.6,2.6c-0.4,0.8-1,1.4-1.7,2s-1.7,1.1-2.8,1.7v0.2c0.7,0.1,1.4,0.3,2.1,0.7c0.7,0.3,1.3,0.7,1.8,1.2s0.9,1.1,1.2,1.8
		s0.5,1.5,0.5,2.3c0,1.4-0.3,2.6-0.9,3.6c-0.6,1.1-1.5,1.9-2.7,2.5s-2.7,0.9-4.4,0.9c-1,0-2.1-0.1-3.3-0.3s-2.2-0.5-3.2-0.9V656h2.1
		c0.4,1.2,0.9,2.1,1.6,2.7s1.6,0.8,2.8,0.8c1.5,0,2.7-0.4,3.4-1.3c0.8-0.8,1.2-2.1,1.2-3.7c0-1.7-0.5-3-1.6-3.9s-2.5-1.3-4.5-1.3
		h-1.6v-1.6c1.6-0.1,2.9-0.4,4-0.9s1.9-1.2,2.4-2s0.8-1.7,0.8-2.7c0-1.3-0.3-2.3-1-3s-1.7-1.1-3-1.1c-1.1,0-2,0.3-2.7,0.9
		c-0.7,0.6-1.2,1.5-1.5,2.7h-2.1v-3.3c1.4-0.6,2.6-1.1,3.8-1.4S2271.1,636.3,2272.2,636.2L2272.2,636.2L2272.2,636.2z M2252.3,636.2
		c2.6,0,4.5,1,5.7,3s1.9,5,1.9,9s-0.7,7.3-2,9.4c-1.3,2.1-3.3,3.2-5.9,3.2s-4.4-1-5.7-3c-1.2-2-1.8-5-1.8-9.1c0-2.2,0.2-4,0.6-5.6
		c0.4-1.6,0.9-2.9,1.6-3.9c0.7-1,1.5-1.8,2.5-2.3S2251.1,636.2,2252.3,636.2L2252.3,636.2L2252.3,636.2z"/>
</g>
<text transform="matrix(1 0 0 1 134.35 624.44)" class="st0 st1 st2">x</text>
<g>
	<line class="st3" x1="1490.4" y1="620.3" x2="1490.4" y2="561.7"/>
	<polygon class="st4" points="1501.5,570.1 1490.4,565.4 1479.3,570.1 1490.4,543.8 	"/>
</g>
<g>
	<line class="st5" x1="1490.4" y1="618.9" x2="1549" y2="618.9"/>
	<polygon class="st6" points="1540.6,630 1545.3,618.9 1540.6,607.8 1566.9,618.9 	"/>
</g>
<text transform="matrix(1 0 0 1 1481.9098 529.4449)" class="st0 st1 st2">y</text>
<text transform="matrix(1 0 0 1 1569.7798 631.485)" class="st0 st1 st2">x</text>
<image style="overflow:visible;enable-background:new    ;" width="1084" height="543" xlink:href="2F3ADAFF.png"  transform="matrix(0.7812 0 0 0.7812 3025.0554 134.7677)">
</image>
<g>
	<g>
		<g>
			<defs>
				<rect id="SVGID_5_" x="3897.5" y="55.9" width="509.5" height="636.2"/>
			</defs>
			<clipPath id="SVGID_6_">
				<use xlink:href="#SVGID_5_"  style="overflow:visible;"/>
			</clipPath>
			<g class="st21">
				<rect x="3897.5" y="55.9" class="st8" width="509.5" height="636.2"/>
			</g>
		</g>
	</g>
	<g>
		<rect x="3897.5" y="55.9" class="st8" width="509.5" height="636.2"/>
		<path class="st8" d="M3972.9,621.9h386.2V103.8h-386.2L3972.9,621.9L3972.9,621.9z"/>
	</g>
	<line class="st9" x1="3972.9" y1="621.9" x2="4359.1" y2="621.9"/>
	<path class="st10" d="M4069.5,621.9V172.8h-55.2V622L4069.5,621.9L4069.5,621.9z M4262.5,621.9V167.3h-55.2V622L4262.5,621.9
		L4262.5,621.9z"/>
	<g>
		<path class="st11" d="M4014.3,621.9V172.8h55.2V622L4014.3,621.9L4014.3,621.9z"/>
		<path class="st11" d="M4207.4,621.9V167.3h55.2V622L4207.4,621.9L4207.4,621.9z"/>
	</g>
	<path class="st12" d="M4124.6,621.9V309.1h-55.2v312.8H4124.6z M4317.7,621.9V165.6h-55.2v456.3L4317.7,621.9L4317.7,621.9z"/>
	<g>
		<path class="st11" d="M4069.5,621.9V309.1h55.2v312.8H4069.5z"/>
		<path class="st11" d="M4262.5,621.9V165.6h55.2v456.3L4262.5,621.9L4262.5,621.9z"/>
	</g>
	<text transform="matrix(1 0 0 1 4002.2493 168.54)" class="st13 st1 st14">13.87</text>
	<text transform="matrix(1 0 0 1 4180.2393 160.49)" class="st13 st1 st14">14.04</text>
	<text transform="matrix(1 0 0 1 4073.0991 302.9802)" class="st13 st1 st14">9.66</text>
	<text transform="matrix(1 0 0 1 4261.2393 159.52)" class="st13 st1 st14">14.09</text>
	<g>
		<line class="st15" x1="3972.9" y1="621.9" x2="4359.1" y2="621.9"/>
		<line class="st15" x1="3972.9" y1="621.9" x2="3972.9" y2="616.7"/>
		<line class="st15" x1="4069.5" y1="621.9" x2="4069.5" y2="616.7"/>
		<line class="st15" x1="4166" y1="621.9" x2="4166" y2="616.7"/>
		<line class="st15" x1="4262.5" y1="621.9" x2="4262.5" y2="616.7"/>
		<line class="st15" x1="4359.1" y1="621.9" x2="4359.1" y2="616.7"/>
	</g>
	<text transform="matrix(1 0 0 1 4006.4194 656.2001)" class="st16 st1 st14">In x-axis</text>
	<text transform="matrix(1 0 0 1 4200.1592 656.2001)" class="st16 st1 st14">In y-axis</text>
	<g>
		<line class="st15" x1="3972.9" y1="621.9" x2="3972.9" y2="103.8"/>
		<line class="st15" x1="3972.9" y1="621.9" x2="3978.1" y2="621.9"/>
		<line class="st15" x1="3972.9" y1="557.2" x2="3978.1" y2="557.2"/>
		<line class="st15" x1="3972.9" y1="492.4" x2="3978.1" y2="492.4"/>
		<line class="st15" x1="3972.9" y1="427.6" x2="3978.1" y2="427.6"/>
		<line class="st15" x1="3972.9" y1="362.9" x2="3978.1" y2="362.9"/>
		<line class="st15" x1="3972.9" y1="298.1" x2="3978.1" y2="298.1"/>
		<line class="st15" x1="3972.9" y1="233.3" x2="3978.1" y2="233.3"/>
		<line class="st15" x1="3972.9" y1="168.5" x2="3978.1" y2="168.5"/>
		<line class="st15" x1="3972.9" y1="103.8" x2="3978.1" y2="103.8"/>
	</g>
	<text transform="matrix(1 0 0 1 3949.8193 631.6002)" class="st16 st1 st14">0</text>
	<g class="st17">
		<text transform="matrix(1 0 0 1 3949.8193 566.8301)" class="st18 st1 st14">2</text>
	</g>
	<g class="st17">
		<text transform="matrix(1 0 0 1 3949.8193 502.0601)" class="st18 st1 st14">4</text>
	</g>
	<g class="st17">
		<text transform="matrix(1 0 0 1 3949.8193 437.2901)" class="st18 st1 st14">6</text>
	</g>
	<text transform="matrix(1 0 0 1 3949.8193 372.52)" class="st16 st1 st14">8</text>
	<g class="st17">
		<text transform="matrix(1 0 0 1 3936.5693 307.75)" class="st18 st1 st14">10</text>
	</g>
	<g class="st17">
		<text transform="matrix(1 0 0 1 3936.5693 242.9802)" class="st18 st1 st14">12</text>
	</g>
	<g class="st17">
		<text transform="matrix(1 0 0 1 3936.5693 178.2101)" class="st18 st1 st14">14</text>
	</g>
	<text transform="matrix(1 0 0 1 3932.3293 113.4401)" class="st16 st1 st14">16</text>
	<text transform="matrix(6.123234e-17 -1 1 6.123234e-17 3936.2393 492.3906)" class="st16 st1 st14">Heat conductivity</text>
	<path class="st8" d="M4378.5,122.1V85.4H3977v36.7C3977,122.1,4378.5,122.1,4378.5,122.1z"/>
	<text transform="matrix(1 0 0 1 4229.959 82.15)" class="st13 st1 st14">Theory</text>
	<path class="st10" d="M4224.3,81.7V58h-51v23.7H4224.3z"/>
	<path class="st11" d="M4173.3,81.7V58h51v23.7H4173.3z"/>
	<text transform="matrix(1 0 0 1 4229.959 119)" class="st13 st1 st14">Experiment</text>
	<path class="st12" d="M4224.3,118.6V94.9h-51v23.7C4173.3,118.6,4224.3,118.6,4224.3,118.6z"/>
	<g>
		<path class="st11" d="M4173.3,118.6V94.9h51v23.7C4224.3,118.6,4173.3,118.6,4173.3,118.6z"/>
		<path class="st19" d="M4161.9,128V51.5h243.8V128H4161.9z"/>
	</g>
</g>
<g>
	<line class="st3" x1="2957.2" y1="615.6" x2="2957.2" y2="556.9"/>
	<polygon class="st4" points="2968.3,565.4 2957.2,560.6 2946.1,565.4 2957.2,539 	"/>
</g>
<g>
	<line class="st5" x1="2957.2" y1="614.1" x2="3015.8" y2="614.1"/>
	<polygon class="st6" points="3007.4,625.2 3012.1,614.1 3007.4,603 3033.7,614.1 	"/>
</g>
<text transform="matrix(1 0 0 1 2948.6992 524.6701)" class="st0 st1 st2">y</text>
<text transform="matrix(1 0 0 1 3033.7393 626.7202)" class="st0 st1 st2">x</text>
<text transform="matrix(1 0 0 1 2948.6992 103.7705)" class="st0 st1 st2">(c)</text>
<g>
	<path class="st13" d="M3358.5,596.3h8.3v58.3h-8.3v-1.5h5.1v-55.3h-5.1V596.3L3358.5,596.3L3358.5,596.3z M3141.5,596.3h8.3v1.5
		h-5.1v55.3h5.1v1.5h-8.3V596.3L3141.5,596.3L3141.5,596.3z"/>
	<path class="st13" d="M3180.2,592.9c2.2,0,3.8,0.5,4.9,1.4c1.1,0.9,1.6,2.3,1.6,4.1c0,0.6-0.1,1.2-0.2,1.7c-0.1,0.5-0.3,1-0.6,1.5
		s-0.6,1-1.1,1.6c-0.4,0.6-0.9,1.2-1.5,1.8s-1.4,1.6-2.8,3c-2.2,2.3-3.8,4.3-4.8,6.1h6.5c0.6,0,1,0,1.4-0.1c0.3-0.1,0.6-0.2,0.8-0.3
		c0.2-0.2,0.4-0.4,0.5-0.6c0.1-0.3,0.3-0.7,0.5-1.2h1.5l-0.3,5.1h-14.3v-0.8c0.5-1.2,1.2-2.5,2-3.7c0.8-1.3,2-2.8,3.6-4.5
		c1.3-1.5,2.3-2.6,2.9-3.4c0.7-0.8,1.1-1.6,1.4-2.2c0.3-0.6,0.6-1.2,0.7-1.7c0.1-0.5,0.2-1.1,0.2-1.6c0-0.9-0.1-1.6-0.4-2.3
		c-0.3-0.7-0.7-1.2-1.3-1.6c-0.6-0.4-1.3-0.6-2.2-0.6c-2.2,0-3.6,1.2-4.4,3.6h-2.1v-3.3c1.4-0.7,2.7-1.1,3.9-1.4
		C3178.1,593.1,3179.2,593,3180.2,592.9L3180.2,592.9L3180.2,592.9z M3161.8,592.9h0.9c-0.1,1.1-0.1,2.7-0.1,4.6v14.8
		c0,0.7,0,1.2,0.1,1.5s0.2,0.6,0.4,0.8s0.5,0.4,0.8,0.5c0.4,0.1,0.8,0.2,1.4,0.3s1.3,0.1,2.1,0.1v1.3h-12.8v-1.3
		c1.3-0.1,2.2-0.1,2.8-0.2c0.6-0.1,1-0.3,1.3-0.4c0.3-0.2,0.5-0.5,0.6-0.8c0.1-0.4,0.2-0.9,0.2-1.8v-14.1c0-0.5-0.1-0.8-0.2-1
		s-0.4-0.3-0.7-0.3c-0.4,0-0.9,0.2-1.6,0.6c-0.7,0.4-1.5,0.9-2.5,1.6l-0.8-1.3L3161.8,592.9L3161.8,592.9L3161.8,592.9z"/>
	<polygon class="st13" points="3191.8,612.9 3195.3,612.9 3195.3,616.9 3191.8,616.9 	"/>
	<path class="st13" d="M3226.6,594.4c-0.8,0-1.5,0.2-2,0.7s-1,1.2-1.3,2.1s-0.6,2-0.7,3.3c-0.1,1.3-0.2,2.7-0.2,4.3
		c0,3.8,0.4,6.5,1.1,8.3s1.8,2.7,3.3,2.7s2.4-0.8,3.1-2.5s1-4.2,1-7.7c0-2.7-0.2-4.8-0.5-6.5c-0.4-1.6-0.8-2.8-1.4-3.6
		C3228.2,594.8,3227.5,594.4,3226.6,594.4L3226.6,594.4L3226.6,594.4z M3226.7,592.9c2.5,0,4.4,1,5.7,2.9s1.9,4.9,1.9,8.9
		s-0.7,7.2-2,9.3s-3.3,3.2-5.8,3.2s-4.4-1-5.6-2.9s-1.8-4.9-1.8-8.9c0-2.1,0.2-4,0.6-5.5c0.4-1.6,0.9-2.8,1.6-3.8
		c0.7-1,1.5-1.8,2.4-2.3S3225.6,592.9,3226.7,592.9L3226.7,592.9L3226.7,592.9z M3211.9,592.1h1.4l-0.3,4h-10v7.6
		c0.6-0.3,1.3-0.4,2-0.6s1.4-0.2,2.1-0.2c1.4,0,2.6,0.3,3.7,0.8s1.9,1.4,2.5,2.4s0.9,2.2,0.9,3.6c0,1.6-0.3,2.9-1,4
		c-0.6,1.1-1.6,1.9-2.8,2.5s-2.7,0.9-4.4,0.9c-2,0-4.1-0.4-6.3-1.2v-3.7h2.1c0.3,1.2,0.9,2.1,1.6,2.6c0.7,0.5,1.6,0.8,2.7,0.8
		c1.5,0,2.7-0.5,3.5-1.4s1.2-2.3,1.2-4.2c0-1.2-0.2-2.2-0.6-3c-0.4-0.8-1-1.4-1.7-1.7s-1.5-0.5-2.5-0.5c-0.8,0-1.5,0.1-2,0.2
		s-1.2,0.3-1.8,0.5l-1.4-0.8v-11.4h9.6c0.4,0,0.7,0,0.8-0.1c0.2-0.1,0.3-0.2,0.4-0.3C3211.7,592.7,3211.8,592.4,3211.9,592.1
		L3211.9,592.1L3211.9,592.1z"/>
	<path class="st13" d="M3314.7,594.4c-0.8,0-1.5,0.2-2,0.7s-1,1.2-1.3,2.1c-0.3,0.9-0.6,2-0.7,3.3c-0.1,1.3-0.2,2.7-0.2,4.3
		c0,3.8,0.4,6.5,1.1,8.3s1.8,2.7,3.3,2.7s2.4-0.8,3.1-2.5c0.7-1.7,1-4.2,1-7.7c0-2.7-0.2-4.8-0.5-6.5c-0.4-1.6-0.8-2.8-1.5-3.6
		C3316.3,594.8,3315.6,594.4,3314.7,594.4L3314.7,594.4L3314.7,594.4z M3314.8,592.9c2.5,0,4.4,1,5.7,2.9s1.9,4.9,1.9,8.9
		s-0.7,7.2-2,9.3s-3.3,3.2-5.8,3.2s-4.4-1-5.6-2.9c-1.2-2-1.8-4.9-1.8-8.9c0-2.1,0.2-4,0.6-5.5c0.4-1.6,0.9-2.8,1.6-3.8
		s1.5-1.8,2.4-2.3C3312.6,593.2,3313.7,592.9,3314.8,592.9L3314.8,592.9L3314.8,592.9z"/>
	<path class="st13" d="M3193.4,636.1c-0.8,0-1.5,0.2-2,0.7s-1,1.2-1.3,2.1c-0.3,0.9-0.6,2-0.7,3.3c-0.1,1.3-0.2,2.7-0.2,4.3
		c0,3.8,0.4,6.5,1.1,8.3s1.8,2.7,3.3,2.7s2.4-0.8,3.1-2.5c0.7-1.7,1-4.2,1-7.7c0-2.7-0.2-4.8-0.5-6.5c-0.4-1.6-0.8-2.8-1.5-3.6
		C3195,636.5,3194.3,636.1,3193.4,636.1L3193.4,636.1L3193.4,636.1z M3193.5,634.6c2.5,0,4.4,1,5.7,2.9c1.2,1.9,1.9,4.9,1.9,8.9
		s-0.7,7.2-2,9.3s-3.3,3.2-5.8,3.2s-4.4-1-5.6-2.9s-1.8-4.9-1.8-8.9c0-2.1,0.2-4,0.6-5.5c0.4-1.6,0.9-2.8,1.6-3.8s1.5-1.8,2.4-2.3
		C3191.4,634.9,3192.4,634.6,3193.5,634.6L3193.5,634.6L3193.5,634.6z"/>
	<path class="st13" d="M3301.5,634.6c2.1,0,3.8,0.5,4.9,1.4c1.1,0.9,1.6,2.3,1.6,4.1c0,0.6-0.1,1.2-0.2,1.7c-0.1,0.5-0.3,1-0.6,1.5
		s-0.6,1-1.1,1.6s-0.9,1.2-1.5,1.8s-1.4,1.6-2.8,3c-2.2,2.3-3.8,4.3-4.8,6.1h6.5c0.6,0,1,0,1.4-0.1s0.6-0.2,0.8-0.3
		c0.2-0.2,0.4-0.4,0.5-0.6c0.1-0.3,0.3-0.7,0.5-1.2h1.5l-0.3,5.1h-14.3v-0.8c0.5-1.2,1.2-2.5,2-3.7s2-2.8,3.6-4.5
		c1.3-1.5,2.3-2.6,2.9-3.4c0.6-0.8,1.1-1.6,1.4-2.2c0.3-0.6,0.6-1.2,0.7-1.7c0.1-0.5,0.2-1.1,0.2-1.6c0-0.9-0.1-1.6-0.4-2.3
		s-0.7-1.2-1.3-1.6c-0.6-0.4-1.3-0.6-2.2-0.6c-2.2,0-3.6,1.2-4.4,3.6h-2.1v-3.3c1.4-0.7,2.7-1.1,3.9-1.4S3300.5,634.6,3301.5,634.6
		L3301.5,634.6L3301.5,634.6z M3283,634.6h0.9c-0.1,1.1-0.1,2.7-0.1,4.6V654c0,0.7,0,1.2,0.1,1.5s0.2,0.6,0.4,0.8s0.5,0.4,0.8,0.5
		s0.8,0.2,1.4,0.3s1.3,0.1,2.1,0.1v1.3h-12.8v-1.3c1.3-0.1,2.2-0.1,2.8-0.2c0.6-0.1,1-0.3,1.3-0.4s0.5-0.5,0.6-0.8
		c0.1-0.4,0.2-0.9,0.2-1.8v-14c0-0.5-0.1-0.8-0.2-1s-0.4-0.3-0.7-0.3c-0.4,0-0.9,0.2-1.6,0.6c-0.7,0.4-1.5,0.9-2.5,1.6l-0.8-1.3
		L3283,634.6L3283,634.6L3283,634.6z"/>
	<polygon class="st13" points="3313,654.6 3316.5,654.6 3316.5,658.6 3313,658.6 	"/>
	<path class="st13" d="M3347.9,636.1c-0.8,0-1.5,0.2-2,0.7s-1,1.2-1.3,2.1c-0.3,0.9-0.6,2-0.7,3.3c-0.1,1.3-0.2,2.7-0.2,4.3
		c0,3.8,0.4,6.5,1.1,8.3s1.8,2.7,3.3,2.7s2.4-0.8,3.1-2.5c0.7-1.7,1-4.2,1-7.7c0-2.7-0.2-4.8-0.5-6.5c-0.4-1.6-0.8-2.8-1.5-3.6
		C3349.5,636.5,3348.7,636.1,3347.9,636.1L3347.9,636.1L3347.9,636.1z M3348,634.6c2.5,0,4.4,1,5.7,2.9c1.2,1.9,1.9,4.9,1.9,8.9
		s-0.7,7.2-2,9.3s-3.3,3.2-5.8,3.2s-4.4-1-5.6-2.9s-1.8-4.9-1.8-8.9c0-2.1,0.2-4,0.6-5.5c0.4-1.6,0.9-2.8,1.6-3.8
		c0.7-1,1.5-1.8,2.4-2.3C3345.8,634.9,3346.8,634.6,3348,634.6L3348,634.6L3348,634.6z M3333.2,633.8h1.4l-0.3,4h-10v7.6
		c0.6-0.3,1.3-0.4,2-0.6s1.4-0.2,2.1-0.2c1.4,0,2.6,0.3,3.7,0.8c1.1,0.6,1.9,1.4,2.5,2.4s0.9,2.2,0.9,3.6c0,1.6-0.3,2.9-1,4
		c-0.6,1.1-1.6,1.9-2.8,2.5s-2.7,0.9-4.4,0.9c-2,0-4.1-0.4-6.3-1.2V654h2.1c0.3,1.2,0.9,2.1,1.6,2.6c0.7,0.5,1.6,0.8,2.7,0.8
		c1.5,0,2.7-0.5,3.5-1.4s1.2-2.3,1.2-4.2c0-1.2-0.2-2.2-0.6-3c-0.4-0.8-1-1.4-1.7-1.7s-1.5-0.5-2.5-0.5c-0.8,0-1.5,0.1-2,0.2
		s-1.2,0.3-1.8,0.5l-1.4-0.8v-11.4h9.6c0.4,0,0.7,0,0.9-0.1s0.3-0.2,0.4-0.3C3333,634.4,3333.1,634.1,3333.2,633.8L3333.2,633.8
		L3333.2,633.8z"/>
</g>
<g>
	<path class="st13" d="M3783.7,596.3h8.3v58.3h-8.3v-1.5h5.1v-55.3h-5.1V596.3L3783.7,596.3L3783.7,596.3z M3566.7,596.3h8.3v1.5
		h-5.1v55.3h5.1v1.5h-8.3V596.3L3566.7,596.3L3566.7,596.3z"/>
	<path class="st13" d="M3587,592.9h0.9c-0.1,1.1-0.1,2.7-0.1,4.6v14.8c0,0.7,0,1.2,0.1,1.5s0.2,0.6,0.4,0.8s0.5,0.4,0.8,0.5
		s0.8,0.2,1.3,0.3s1.3,0.1,2.2,0.1v1.3h-12.8v-1.3c1.3-0.1,2.2-0.1,2.8-0.2s1-0.3,1.3-0.4s0.5-0.5,0.6-0.8c0.1-0.4,0.2-0.9,0.2-1.8
		v-14.1c0-0.5-0.1-0.8-0.2-1c-0.2-0.2-0.4-0.3-0.7-0.3c-0.4,0-0.9,0.2-1.6,0.6c-0.7,0.4-1.5,0.9-2.5,1.6l-0.8-1.3L3587,592.9
		L3587,592.9L3587,592.9z M3610.2,592.1h1.4l-0.3,4h-10v7.6c0.6-0.3,1.3-0.4,2-0.6c0.7-0.1,1.4-0.2,2.1-0.2c1.4,0,2.6,0.3,3.7,0.8
		c1.1,0.6,1.9,1.4,2.5,2.4s0.9,2.2,0.9,3.6c0,1.6-0.3,2.9-1,4s-1.6,1.9-2.8,2.5s-2.7,0.9-4.3,0.9c-2,0-4.1-0.4-6.3-1.2v-3.7h2.1
		c0.3,1.2,0.9,2.1,1.6,2.6c0.7,0.6,1.6,0.8,2.7,0.8c1.5,0,2.7-0.5,3.5-1.4s1.2-2.3,1.2-4.2c0-1.2-0.2-2.2-0.6-3s-1-1.4-1.7-1.7
		c-0.7-0.4-1.5-0.5-2.5-0.5c-0.8,0-1.5,0.1-2,0.2c-0.6,0.1-1.2,0.3-1.8,0.5l-1.4-0.8v-11.4h9.6c0.4,0,0.7,0,0.8-0.1
		c0.2-0.1,0.3-0.2,0.4-0.3C3610,592.7,3610.1,592.4,3610.2,592.1L3610.2,592.1L3610.2,592.1z"/>
	<polygon class="st13" points="3617,612.9 3620.5,612.9 3620.5,616.9 3617,616.9 	"/>
	<path class="st13" d="M3651.8,605.3c-0.9,0-1.6,0.1-2.2,0.4c-0.6,0.3-1.1,0.6-1.4,1.1c-0.4,0.5-0.6,1-0.8,1.6s-0.2,1.3-0.2,1.9
		c0,0.8,0.1,1.4,0.3,2.1c0.2,0.7,0.4,1.2,0.8,1.7c0.4,0.5,0.9,0.8,1.5,1.1s1.3,0.4,2.1,0.4c0.9,0,1.8-0.2,2.4-0.6
		c0.7-0.4,1.2-1,1.5-1.7s0.5-1.7,0.5-2.7c0-1.1-0.2-2.1-0.6-2.9c-0.4-0.8-0.9-1.4-1.6-1.8S3652.7,605.4,3651.8,605.3L3651.8,605.3
		L3651.8,605.3z M3651.9,594.4c-1.5,0-2.6,0.4-3.3,1.2c-0.8,0.8-1.2,1.9-1.2,3.4c0,0.7,0.1,1.3,0.2,1.9c0.2,0.6,0.4,1.1,0.8,1.6
		c0.4,0.4,0.8,0.8,1.4,1.1c0.6,0.3,1.3,0.4,2.1,0.4c1,0,1.8-0.2,2.4-0.6c0.6-0.4,1.1-0.9,1.5-1.7c0.3-0.7,0.5-1.6,0.5-2.5
		c0-1-0.2-1.9-0.6-2.7s-0.9-1.3-1.6-1.6S3652.7,594.4,3651.9,594.4L3651.9,594.4L3651.9,594.4z M3651.9,592.9c1.7,0,3.1,0.2,4.2,0.7
		c1.1,0.5,2,1.2,2.6,2c0.6,0.9,0.9,1.9,0.9,3.2s-0.3,2.4-0.9,3.3c-0.6,0.9-1.6,1.7-2.9,2.3v0.2c1.3,0.5,2.3,1.3,3,2.2
		c0.7,1,1,2.2,1,3.5s-0.3,2.5-1,3.6c-0.6,1-1.6,1.8-2.8,2.4s-2.7,0.8-4.3,0.8c-1.5,0-2.9-0.3-4.1-0.8s-2.1-1.3-2.7-2.3
		c-0.7-1-1-2.2-1-3.5c0-1,0.2-1.9,0.5-2.6c0.3-0.7,0.8-1.3,1.4-1.8s1.3-0.9,2.1-1.3v-0.2c-2.5-1.1-3.7-2.9-3.7-5.5
		c0-1.2,0.3-2.3,1-3.2c0.6-0.9,1.6-1.7,2.8-2.2C3649.1,593.2,3650.4,592.9,3651.9,592.9L3651.9,592.9L3651.9,592.9z M3637.1,592.1
		h1.3l-0.3,4h-10v7.6c0.6-0.3,1.3-0.4,2-0.6s1.4-0.2,2.1-0.2c1.4,0,2.6,0.3,3.7,0.8s1.9,1.4,2.5,2.4s0.9,2.2,0.9,3.6
		c0,1.6-0.3,2.9-1,4s-1.6,1.9-2.8,2.5s-2.7,0.9-4.4,0.9c-2,0-4.1-0.4-6.3-1.2v-3.7h2.1c0.3,1.2,0.9,2.1,1.6,2.6
		c0.7,0.5,1.6,0.8,2.7,0.8c1.5,0,2.7-0.5,3.5-1.4s1.2-2.3,1.2-4.2c0-1.2-0.2-2.2-0.6-3c-0.4-0.8-1-1.4-1.7-1.7s-1.5-0.5-2.5-0.5
		c-0.8,0-1.5,0.1-2,0.2s-1.2,0.3-1.8,0.5l-1.4-0.8v-11.4h9.6c0.4,0,0.7,0,0.9-0.1s0.3-0.2,0.4-0.3
		C3636.9,592.7,3637,592.4,3637.1,592.1L3637.1,592.1L3637.1,592.1z"/>
	<path class="st13" d="M3739.9,594.4c-0.8,0-1.5,0.2-2,0.7s-1,1.2-1.3,2.1s-0.6,2-0.7,3.3c-0.1,1.3-0.2,2.7-0.2,4.3
		c0,3.8,0.4,6.5,1.1,8.3s1.8,2.7,3.3,2.7s2.4-0.8,3.1-2.5c0.7-1.7,1-4.2,1-7.7c0-2.7-0.2-4.8-0.5-6.5c-0.3-1.6-0.8-2.8-1.4-3.6
		C3741.5,594.8,3740.8,594.4,3739.9,594.4L3739.9,594.4L3739.9,594.4z M3740,592.9c2.5,0,4.4,1,5.7,2.9s1.9,4.9,1.9,8.9
		s-0.7,7.2-2,9.3s-3.3,3.2-5.8,3.2s-4.4-1-5.6-2.9s-1.8-4.9-1.8-8.9c0-2.1,0.2-4,0.6-5.5c0.4-1.6,0.9-2.8,1.6-3.8s1.5-1.8,2.4-2.3
		S3738.9,592.9,3740,592.9L3740,592.9L3740,592.9z"/>
	<path class="st13" d="M3618.6,636.1c-0.8,0-1.5,0.2-2,0.7s-1,1.2-1.3,2.1c-0.3,0.9-0.6,2-0.7,3.3c-0.1,1.3-0.2,2.7-0.2,4.3
		c0,3.8,0.4,6.5,1.1,8.3s1.8,2.7,3.3,2.7s2.4-0.8,3.1-2.5c0.7-1.7,1-4.2,1-7.7c0-2.7-0.2-4.8-0.5-6.5c-0.4-1.6-0.8-2.8-1.5-3.6
		C3620.2,636.5,3619.5,636.1,3618.6,636.1L3618.6,636.1L3618.6,636.1z M3618.7,634.6c2.5,0,4.4,1,5.7,2.9c1.2,1.9,1.9,4.9,1.9,8.9
		s-0.7,7.2-2,9.3s-3.3,3.2-5.8,3.2s-4.4-1-5.6-2.9c-1.2-2-1.8-4.9-1.8-8.9c0-2.1,0.2-4,0.6-5.5c0.4-1.6,0.9-2.8,1.6-3.8
		c0.7-1,1.5-1.8,2.4-2.3C3616.6,634.9,3617.6,634.6,3618.7,634.6L3618.7,634.6L3618.7,634.6z"/>
	<path class="st13" d="M3708.2,634.6h0.9c-0.1,1.1-0.1,2.7-0.1,4.6V654c0,0.7,0,1.2,0.1,1.5s0.2,0.6,0.4,0.8s0.5,0.4,0.8,0.5
		s0.8,0.2,1.3,0.3s1.3,0.1,2.2,0.1v1.3H3701v-1.3c1.3-0.1,2.2-0.1,2.8-0.2s1-0.3,1.3-0.4s0.5-0.5,0.6-0.8c0.1-0.4,0.2-0.9,0.2-1.8
		v-14c0-0.5-0.1-0.8-0.2-1c-0.2-0.2-0.4-0.3-0.7-0.3c-0.4,0-0.9,0.2-1.6,0.6c-0.7,0.4-1.5,0.9-2.5,1.6l-0.8-1.3L3708.2,634.6
		L3708.2,634.6L3708.2,634.6z M3731.5,633.8h1.3l-0.3,4h-10v7.6c0.6-0.3,1.3-0.4,2-0.6s1.4-0.2,2.1-0.2c1.4,0,2.6,0.3,3.7,0.8
		c1.1,0.6,1.9,1.4,2.5,2.4s0.9,2.2,0.9,3.6c0,1.6-0.3,2.9-1,4c-0.6,1.1-1.6,1.9-2.8,2.5s-2.7,0.9-4.4,0.9c-2,0-4.1-0.4-6.3-1.2V654
		h2.1c0.4,1.2,0.9,2.1,1.6,2.6s1.6,0.8,2.7,0.8c1.5,0,2.7-0.5,3.5-1.4s1.2-2.3,1.2-4.2c0-1.2-0.2-2.2-0.6-3s-1-1.4-1.7-1.7
		s-1.5-0.5-2.5-0.5c-0.8,0-1.5,0.1-2,0.2c-0.6,0.1-1.2,0.3-1.8,0.5l-1.4-0.8v-11.4h9.6c0.4,0,0.7,0,0.9-0.1s0.3-0.2,0.4-0.3
		C3731.3,634.4,3731.4,634.1,3731.5,633.8L3731.5,633.8L3731.5,633.8z"/>
	<polygon class="st13" points="3738.2,654.6 3741.7,654.6 3741.7,658.6 3738.2,658.6 	"/>
	<path class="st13" d="M3773.1,647c-0.9,0-1.6,0.1-2.2,0.4c-0.6,0.3-1.1,0.6-1.4,1.1c-0.4,0.5-0.6,1-0.8,1.6s-0.2,1.3-0.2,1.9
		c0,0.8,0.1,1.4,0.3,2.1s0.5,1.2,0.8,1.7s0.9,0.8,1.4,1.1c0.6,0.3,1.3,0.4,2.2,0.4s1.8-0.2,2.4-0.6s1.2-1,1.5-1.7
		c0.3-0.8,0.5-1.7,0.5-2.7c0-1.1-0.2-2.1-0.6-2.9s-0.9-1.4-1.6-1.8C3774.8,647.3,3774,647.1,3773.1,647L3773.1,647L3773.1,647z
		 M3773.2,636.1c-1.5,0-2.6,0.4-3.3,1.2s-1.2,1.9-1.2,3.4c0,0.7,0.1,1.3,0.2,1.9c0.2,0.6,0.4,1.1,0.8,1.6s0.8,0.8,1.4,1.1
		s1.3,0.4,2.1,0.4c1,0,1.8-0.2,2.4-0.6c0.7-0.4,1.1-0.9,1.5-1.7s0.5-1.6,0.5-2.5c0-1-0.2-1.9-0.6-2.7s-0.9-1.3-1.6-1.6
		C3774.8,636.3,3774,636.1,3773.2,636.1L3773.2,636.1L3773.2,636.1z M3773.2,634.6c1.7,0,3.1,0.2,4.2,0.7c1.1,0.5,2,1.2,2.6,2
		s0.9,1.9,0.9,3.2s-0.3,2.4-0.9,3.3c-0.6,0.9-1.6,1.7-2.9,2.3v0.2c1.3,0.5,2.3,1.3,3,2.2s1,2.2,1,3.5s-0.3,2.5-1,3.6
		s-1.6,1.8-2.8,2.4s-2.7,0.8-4.3,0.8c-1.5,0-2.9-0.3-4-0.8c-1.2-0.5-2.1-1.3-2.7-2.3c-0.7-1-1-2.2-1-3.5c0-1,0.2-1.9,0.5-2.6
		c0.4-0.7,0.8-1.3,1.4-1.8s1.3-0.9,2.1-1.3v-0.2c-2.5-1.1-3.7-2.9-3.7-5.5c0-1.2,0.3-2.3,1-3.2s1.6-1.7,2.8-2.2
		S3771.7,634.6,3773.2,634.6L3773.2,634.6L3773.2,634.6z M3758.4,633.8h1.4l-0.3,4h-10v7.6c0.6-0.3,1.3-0.4,2-0.6
		c0.7-0.1,1.4-0.2,2.1-0.2c1.4,0,2.6,0.3,3.7,0.8c1.1,0.6,1.9,1.4,2.5,2.4s0.9,2.2,0.9,3.6c0,1.6-0.3,2.9-1,4s-1.6,1.9-2.8,2.5
		s-2.7,0.9-4.3,0.9c-2,0-4.1-0.4-6.3-1.2V654h2.1c0.4,1.2,0.9,2.1,1.6,2.6s1.6,0.8,2.7,0.8c1.5,0,2.7-0.5,3.5-1.4s1.2-2.3,1.2-4.2
		c0-1.2-0.2-2.2-0.6-3c-0.4-0.8-1-1.4-1.7-1.7s-1.5-0.5-2.5-0.5c-0.8,0-1.5,0.1-2,0.2s-1.2,0.3-1.8,0.5l-1.4-0.8v-11.4h9.6
		c0.4,0,0.7,0,0.8-0.1s0.3-0.2,0.4-0.3C3758.2,634.4,3758.3,634.1,3758.4,633.8L3758.4,633.8L3758.4,633.8z"/>
</g>
</svg>
